<?xml version="1.0" encoding="UTF-8" standalone="no"?>
<svg
   xmlns:dc="http://purl.org/dc/elements/1.1/"
   xmlns:cc="http://creativecommons.org/ns#"
   xmlns:rdf="http://www.w3.org/1999/02/22-rdf-syntax-ns#"
   xmlns:svg="http://www.w3.org/2000/svg"
   xmlns="http://www.w3.org/2000/svg"
   xmlns:sodipodi="http://sodipodi.sourceforge.net/DTD/sodipodi-0.dtd"
   xmlns:inkscape="http://www.inkscape.org/namespaces/inkscape"
   width="256"
   height="255"
   viewBox="0 0 256 255"
   fill="none"
   version="1.1"
   id="svg274"
   sodipodi:docname="tess.svg"
   inkscape:version="1.0.2-2 (e86c870879, 2021-01-15)">
  <metadata
     id="metadata280">
    <rdf:RDF>
      <cc:Work
         rdf:about="">
        <dc:format>image/svg+xml</dc:format>
        <dc:type
           rdf:resource="http://purl.org/dc/dcmitype/StillImage" />
        <dc:title />
      </cc:Work>
    </rdf:RDF>
  </metadata>
  <defs
     id="defs278" />
  <sodipodi:namedview
     pagecolor="#ffffff"
     bordercolor="#666666"
     borderopacity="1"
     objecttolerance="10"
     gridtolerance="10"
     guidetolerance="10"
     inkscape:pageopacity="0"
     inkscape:pageshadow="2"
     inkscape:window-width="844"
     inkscape:window-height="837"
     id="namedview276"
     showgrid="false"
     inkscape:zoom="1.3137255"
     inkscape:cx="99.126915"
     inkscape:cy="210.92209"
     inkscape:window-x="792"
     inkscape:window-y="-8"
     inkscape:window-maximized="0"
     inkscape:current-layer="svg274"
     inkscape:document-rotation="0" />
  <path
     d="M102.5 195V193H97L92.5 197V199V200.5L92 203L91.5 203.5V204.5H94.5L95.5 206.5V207.5L97 210L98.5 209L100.5 208.5V207.5L99.5 205.5L100 204V202C100.167 201.5 100.5 200.4 100.5 200C100.5 199.5 101.5 199 102 199C102.4 199 103.5 198.333 104 198L104.5 196.5L103.5 196L102.5 195Z"
     fill="#FF0000"
     stroke="black"
     id="path146" />
  <path
     d="M208 171L206.5 173.5H206L205.5 171.5L203.5 170L201.5 168H199.5L197.5 167L196.5 165.5L195.5 163.5L198 162L199.5 160.5L200.5 159V157L202.5 154L201.5 152V147.5L203 144.5H202.5H201.5L198 143L195.5 142L192.5 140L189.5 136.5L190 136L191.5 135L193 133.5V132H195.5L196.5 131L199.5 130.5L201.5 128.5L202 126.5V124.5L203 122.5L204.5 121V118.5L203 117L202 115.5L204 114L203 110L204 106L205.5 105.5L207.5 104H210.5L214 97L218 95.5L219.5 96L222.5 97H224.5L228 94.5L229.5 95.5L234.5 94.5L238 97L241.5 94.5L243 95.5L246.5 97H249L250 97.5L252.5 98.5C252.833 98.6667 253.5 99.1 253.5 99.5C253.5 100 254 100 254.5 101C255 102 254.5 102 254.5 102.5C254.5 103 254.5 103.264 253.5 103.5C252.5 103.736 253 103.5 252.5 102.5C252 101.5 251.5 102 251.5 101.5C251.5 101 251 100.5 250.5 100C250.333 100.167 249.8 100.5 249 100.5H248V102H249H250C250.4 102 251.5 103 252 103.5H251L250 104.5L250.5 105H251.5L253 106H253.5V107.342V108.5C253.333 108.667 252.9 108.9 252.5 108.5C252 108 252 107.737 250.5 107.737H249.5C249.833 108.158 250.6 109 251 109C251.4 109 251.5 109.333 251.5 109.5L252 110.5H253.5L254.5 111L254 112L252.5 112.5L251.5 114C251.833 114.333 252.5 114.9 252.5 114.5C252.5 114 253.5 114 254 114C254.4 114 254.5 114.667 254.5 115C254.333 115.333 254 116.1 254 116.5C254 117 253 117.5 253 118C253 118.4 252.333 118.5 252 118.5C252 118.667 252.2 119.1 253 119.5C253.8 119.9 253.667 120 253.5 120C253.5 120.5 253.4 121.5 253 121.5H251.5C251.167 121.5 250.4 121.2 250 120C250 119.2 249.667 119.333 249.5 119.5C249.333 119 248.9 117.9 248.5 117.5C248.1 117.1 248.333 118 248.5 118.5V120C248.5 120.4 248.167 120.833 248 121H247.5L247 120L246 119C245.5 118.5 246 119.5 246 121C246 121.8 245.667 121.333 245.5 121H245L241.5 120C241.333 119.667 240.9 118.9 240.5 118.5C240 118 240 118 239.5 118H239.5C239.1 118 239.333 117.667 239.5 117.5C239.333 117.167 238.7 116.2 237.5 115C236.7 114.6 236.5 115.167 236.5 115.5C236.667 115.833 237.1 116.6 237.5 117C237.9 117.4 238.333 118.167 238.5 118.5V119L239.5 120C239.667 120.333 240.1 121 240.5 121C240.9 121 241 121.667 241 122L242 123H244C244.5 123 244.764 123 245.5 123.5C246.236 124 246 123.5 246.5 123.5C246.9 123.5 247.667 123.167 248 123C248.167 123 248.6 122.9 249 122.5C249.4 122.1 249.5 122.667 249.5 123L250 123.5L251 123H252C252.333 123.167 253.1 123.6 253.5 124C253.9 124.4 254 124.167 254 124V124.5V125.758V127H253.5C253.167 126.833 252.4 126.5 252 126.5L252.5 127.5C252.667 127.833 253.1 128.6 253.5 129C254 129.5 253.5 129.5 253.5 130V131C253.5 131.5 252.5 131 252 130.5C251.5 130 251 130 251 129V128L250.5 127L250 126C249.667 126 248.9 125.952 248.5 125.758C248.1 125.565 248.333 125.839 248.5 126V127C248.667 127.167 249.2 127.6 250 128C250.5 128.5 250 129.5 249.5 129C249.1 128.6 248.667 128.833 248.5 129L249 130C248.833 130.333 248.4 131.254 248 132.27C248 133.039 248.5 133 248.5 134.5C248.5 135.3 248.167 135.167 248 135L247 134C246.5 133.5 247.5 131.5 247 131.5C246.5 131.5 246 132 246 132.5C246 132.9 245.667 132.333 245.5 132C245.333 132.333 245.1 133.1 245.5 133.5C245.9 133.9 245.667 134.333 245.5 134.5H245L244.5 134C244.333 133.833 244 133.1 244 131.5C244 130.5 243.5 131 243 130.5C242.6 130.1 242.833 130.667 243 131V133.5V134L242.5 134.5L241.5 134V133.5V131.5V129.5C241.5 128.3 240.833 128.667 240.5 129H240V129.5V131V132C240 132.333 239.9 133.1 239.5 133.5C239.1 133.9 239 133.667 239 133.5C238.667 133.667 238 133.9 238 133.5C238 133 237.5 132.5 237.5 132C237.5 131.6 236.833 131.167 236.5 131L236 132L235.123 132.438C235.085 132.482 235.04 132.5 235 132.5L235.123 132.438C235.243 132.301 235.303 131.909 235 131V130.5L235.5 129.5L236 129V128C236 127.833 235.8 127.5 235 127.5L234.5 128C234.333 128.167 234 128.4 234 128C234 127.5 234.5 127 234 126C233.6 125.6 232.833 126.167 232.5 126.5V127V128V129V131C232.833 131.333 233.5 132.1 233.5 132.5C233.5 133 233.5 133.5 232.5 134H230.5C229.7 134 229.167 133.333 229 133C228.833 133 228.4 133.1 228 133.5C227.5 134 227.5 133.5 227 133.5H225.5C225 133.5 225 133 225 132.5C225 132 224.5 131.5 224 131C223.6 130.6 222.833 130.5 222.5 130.5L222 131C222.333 131.167 223 131.6 223 132C223 132.4 223.333 132.833 223.5 133V134H219.5H219L218.5 134.5C218.667 134.833 219.1 135.6 219.5 136C220 136.5 220 136.5 220.5 136.5C221 136.5 221 136.5 222 136C222 135.5 222.5 135.5 223 135.5C223.5 135.5 224.5 135.5 225 136C225.4 136.4 225.167 136.833 225 137L225.5 137.5L226 138L226.5 136.5L227 136H228.5L230 135.5L231 136C230.833 136.5 230.3 137.6 229.5 138C228.7 138.4 229.167 138.5 229.5 138.5C229.5 138.667 229.6 139.2 230 140C230.5 141 230 141 230.5 142C230.9 142 230.667 142.667 230.5 143C230.333 143.167 229.8 143.8 229 145C228.5 146 229 145.5 228.5 146C228.1 146.4 228.333 146.833 228.5 147L229.5 146.5C229.667 146.5 230.1 146.4 230.5 146C230.9 145.6 231 144.833 231 144.5C231.167 144.333 231.5 143.9 231.5 143.5V143L233 142L232.5 141.5L231.5 140.5L231 139.5V138.5L232 137.5L232.5 137L233.5 137.5L234.5 136L235 136.5C235.333 136.5 236.2 136.7 237 137.5C237 138 237.5 138 238 138.5L238.5 138V137.5C238.833 137.333 239.6 137 240 137C240.4 137 240.5 137.333 240.5 137.5V138V138.5L239.5 139.5C239 140 239 140 239 140.5C239 140.9 239.333 141.333 239.5 141.5H240L241.5 140C242 139.5 242 139.5 242 139V138.5C242 138.333 242.2 137.8 243 137C243.5 136.5 244 137 245 137.5C245.8 137.9 245.667 137.667 245.5 137.5C246 137.333 247.1 137 247.5 137C247.9 137 247.667 137.333 247.5 137.5V138.5L246.5 140L244 142.5L243.5 143L242.5 143.5L241.5 144.5L240.5 145L240 145.5L239 146.5C238.5 147 238 146.5 238 146C238 145.6 237.333 145.5 237 145.5L236.5 146V146.5C236.5 146.833 236.3 147.6 235.5 148C235 148 234.5 148.5 234 149L234.5 150.5V153C234.5 153.4 233.833 153.5 233.5 153.5V153L232.5 151.5L232 152H231.5L231 153.5L229.5 155H231C231.167 155.167 231.5 155.6 231.5 156C231.1 156.8 230.667 157.333 230.5 157.5H229.5V159C229.5 159.4 229.167 159.833 229 160L228 161C227.5 161.5 227 161.5 226 160.5V159.5C226 159.333 226.1 158.9 226.5 158.5L228 157C228.5 156.5 228 156.5 227.5 155.5C227.1 155.1 226.333 155.667 226 156L225.5 157.5L225 160L224.5 160.5V161.5H223.5C223.333 161.5 222.9 161.4 222.5 161C222 160.5 222.5 160.5 222.5 160V158.5C222.5 158.1 222.167 159 222 159.5L221 160H220.5L220 160.5L220.5 161.5C220.5 161.833 220.4 162.7 220 163.5C219.6 164.3 219.833 164.167 220 164L221 163.5H222.5H223L223.5 164V165L223 166L222.5 166.5V167.5L222 168.5L220.5 169H219H217.5L215.5 170H214.5H213.5C212.833 170.333 211.4 171 211 171H210L209.5 170L210 168.5V167.5L211.5 167C211.833 166.833 212.4 166.4 212 166C211.6 165.6 211.167 165.5 211 165.5V164C211.333 163.333 212 161.9 212 161.5C212 161.1 212.333 160 212.5 159.5L212 159C211.5 159.167 210.4 159.6 210 160C209.6 160.4 209.833 161.5 210 162V163.5V164C209.333 164.333 208 164.8 208 164C208 163.2 207.667 162.667 207.5 162.5L206.5 162L207 160L208 157.5C207.5 157.167 206.5 156.4 206.5 156C206.5 155.6 206.833 154.167 207 153.5L206 153V154L205.5 156L204.5 156.5L205.5 157.5L206 159L205.5 160V162L206 163.5L206.5 164L208 166V168V171Z"
     fill="#03A9F4"
     id="path148" />
  <path
     d="M229.5 157.5C229.5 157.833 229.5 158.6 229.5 159C229.5 159.4 229.167 159.833 229 160C228.833 160.167 228.4 160.6 228 161C227.5 161.5 227 161.5 226 160.5C226 160.1 226 159.667 226 159.5C226 159.333 226.1 158.9 226.5 158.5C227 158 227 158 228 157C228.5 156.5 228 156.5 227.5 155.5C227.1 155.1 226.333 155.667 226 156L225.5 157.5L225 160L224.5 160.5V161.5H223.5C223.333 161.5 222.9 161.4 222.5 161C222 160.5 222.5 160.5 222.5 160C222.5 159.5 222.5 159 222.5 158.5C222.5 158.1 222.167 159 222 159.5L221 160H220.5L220 160.5L220.5 161.5C220.5 161.833 220.4 162.7 220 163.5C219.6 164.3 219.833 164.167 220 164L221 163.5H222.5H223L223.5 164V165L223 166L222.5 166.5V167.5L222 168.5L220.5 169H219H217.5L215.5 170H214.5H213.5C212.833 170.333 211.4 171 211 171C210.6 171 210.167 171 210 171L209.5 170L210 168.5V167.5L211.5 167C211.833 166.833 212.4 166.4 212 166C211.6 165.6 211.167 165.5 211 165.5V164C211.333 163.333 212 161.9 212 161.5C212 161.1 212.333 160 212.5 159.5L212 159C211.5 159.167 210.4 159.6 210 160C209.6 160.4 209.833 161.5 210 162V163.5V164C209.333 164.333 208 164.8 208 164C208 163.2 207.667 162.667 207.5 162.5L206.5 162L207 160L208 157.5C207.5 157.167 206.5 156.4 206.5 156C206.5 155.6 206.833 154.167 207 153.5L206 153V154L205.5 156L204.5 156.5L205.5 157.5L206 159L205.5 160V162L206 163.5L206.5 164L208 166V168V171L206.5 173.5H206L205.5 171.5L203.5 170L201.5 168H199.5L197.5 167L196.5 165.5L195.5 163.5L198 162L199.5 160.5L200.5 159V157L202.5 154L201.5 152V147.5L203 144.5H202.5H201.5L198 143L195.5 142L192.5 140L189.5 136.5L190 136L191.5 135L193 133.5V132H195.5L196.5 131L199.5 130.5L201.5 128.5L202 126.5V124.5L203 122.5L204.5 121V118.5L203 117L202 115.5L204 114L203 110L204 106L205.5 105.5L207.5 104H210.5L214 97L218 95.5L219.5 96L222.5 97H224.5L228 94.5L229.5 95.5L234.5 94.5L238 97L241.5 94.5L243 95.5L246.5 97H249L250 97.5L252.5 98.5C252.833 98.6667 253.5 99.1 253.5 99.5C253.5 100 254 100 254.5 101C255 102 254.5 102 254.5 102.5C254.5 103 254.5 103.264 253.5 103.5C252.5 103.736 253 103.5 252.5 102.5C252 101.5 251.5 102 251.5 101.5C251.5 101 251 100.5 250.5 100C250.333 100.167 249.8 100.5 249 100.5C248.6 100.5 248.167 100.5 248 100.5V102H249C249.167 102 249.6 102 250 102C250.4 102 251.5 103 252 103.5H251L250 104.5L250.5 105H251.5L253 106H253.5V107.342V108.5C253.333 108.667 252.9 108.9 252.5 108.5C252 108 252 107.737 250.5 107.737C249.3 107.737 249.333 107.737 249.5 107.737C249.833 108.158 250.6 109 251 109C251.4 109 251.5 109.333 251.5 109.5L252 110.5H253.5L254.5 111L254 112L252.5 112.5L251.5 114C251.833 114.333 252.5 114.9 252.5 114.5C252.5 114 253.5 114 254 114C254.4 114 254.5 114.667 254.5 115C254.333 115.333 254 116.1 254 116.5C254 117 253 117.5 253 118C253 118.4 252.333 118.5 252 118.5C252 118.667 252.2 119.1 253 119.5C253.8 119.9 253.667 120 253.5 120C253.5 120.5 253.4 121.5 253 121.5C252.6 121.5 251.833 121.5 251.5 121.5C251.167 121.5 250.4 121.2 250 120C250 119.2 249.667 119.333 249.5 119.5C249.333 119 248.9 117.9 248.5 117.5C248.1 117.1 248.333 118 248.5 118.5C248.5 118.667 248.5 119.2 248.5 120C248.5 120.4 248.167 120.833 248 121H247.5L247 120C246.833 119.833 246.4 119.4 246 119C245.5 118.5 246 119.5 246 121C246 121.8 245.667 121.333 245.5 121H245L241.5 120C241.333 119.667 240.9 118.9 240.5 118.5C240 118 240 118 239.5 118C239.1 118 239.333 117.667 239.5 117.5C239.333 117.167 238.7 116.2 237.5 115C236.7 114.6 236.5 115.167 236.5 115.5C236.667 115.833 237.1 116.6 237.5 117C237.9 117.4 238.333 118.167 238.5 118.5V119L239.5 120C239.667 120.333 240.1 121 240.5 121C240.9 121 241 121.667 241 122L242 123C242.5 123 243.6 123 244 123C244.5 123 244.764 123 245.5 123.5C246.236 124 246 123.5 246.5 123.5C246.9 123.5 247.667 123.167 248 123C248.167 123 248.6 122.9 249 122.5C249.4 122.1 249.5 122.667 249.5 123L250 123.5L251 123H252C252.333 123.167 253.1 123.6 253.5 124C253.9 124.4 254 124.167 254 124V124.5V125.758V127H253.5C253.167 126.833 252.4 126.5 252 126.5L252.5 127.5C252.667 127.833 253.1 128.6 253.5 129C254 129.5 253.5 129.5 253.5 130C253.5 130.5 253.5 130.5 253.5 131C253.5 131.5 252.5 131 252 130.5C251.5 130 251 130 251 129C251 128.2 251 128 251 128L250.5 127L250 126C249.667 126 248.9 125.952 248.5 125.758C248.1 125.565 248.333 125.839 248.5 126V127C248.667 127.167 249.2 127.6 250 128C250.5 128.5 250 129.5 249.5 129C249.1 128.6 248.667 128.833 248.5 129L249 130C248.833 130.333 248.4 131.254 248 132.27C248 133.039 248.5 133 248.5 134.5C248.5 135.3 248.167 135.167 248 135C247.833 134.833 247.4 134.4 247 134C246.5 133.5 247.5 131.5 247 131.5C246.5 131.5 246 132 246 132.5C246 132.9 245.667 132.333 245.5 132C245.333 132.333 245.1 133.1 245.5 133.5C245.9 133.9 245.667 134.333 245.5 134.5H245L244.5 134C244.333 133.833 244 133.1 244 131.5C244 130.5 243.5 131 243 130.5C242.6 130.1 242.833 130.667 243 131V133.5V134L242.5 134.5L241.5 134V133.5C241.5 133 241.5 131.9 241.5 131.5C241.5 131 241.5 131 241.5 129.5C241.5 128.3 240.833 128.667 240.5 129H240V129.5V131V132C240 132.333 239.9 133.1 239.5 133.5C239.1 133.9 239 133.667 239 133.5C238.667 133.667 238 133.9 238 133.5C238 133 237.5 132.5 237.5 132C237.5 131.6 236.833 131.167 236.5 131L236 132L235 132.5C235.167 132.5 235.4 132.2 235 131C235 130.2 235 130.333 235 130.5L235.5 129.5L236 129V128C236 127.833 235.8 127.5 235 127.5L234.5 128C234.333 128.167 234 128.4 234 128C234 127.5 234.5 127 234 126C233.6 125.6 232.833 126.167 232.5 126.5V127V128V129V131C232.833 131.333 233.5 132.1 233.5 132.5C233.5 133 233.5 133.5 232.5 134C232 134 231.5 134 230.5 134C229.7 134 229.167 133.333 229 133C228.833 133 228.4 133.1 228 133.5C227.5 134 227.5 133.5 227 133.5C226.5 133.5 226 133.5 225.5 133.5C225 133.5 225 133 225 132.5C225 132 224.5 131.5 224 131C223.6 130.6 222.833 130.5 222.5 130.5L222 131C222.333 131.167 223 131.6 223 132C223 132.4 223.333 132.833 223.5 133V134C223 134 221.5 134 219.5 134C219.1 134 219 134 219 134L218.5 134.5C218.667 134.833 219.1 135.6 219.5 136C220 136.5 220 136.5 220.5 136.5C221 136.5 221 136.5 222 136C222 135.5 222.5 135.5 223 135.5C223.5 135.5 224.5 135.5 225 136C225.4 136.4 225.167 136.833 225 137L225.5 137.5L226 138L226.5 136.5L227 136H228.5L230 135.5L231 136C230.833 136.5 230.3 137.6 229.5 138C228.7 138.4 229.167 138.5 229.5 138.5C229.5 138.667 229.6 139.2 230 140C230.5 141 230 141 230.5 142C230.9 142 230.667 142.667 230.5 143C230.333 143.167 229.8 143.8 229 145C228.5 146 229 145.5 228.5 146C228.1 146.4 228.333 146.833 228.5 147L229.5 146.5C229.667 146.5 230.1 146.4 230.5 146C230.9 145.6 231 144.833 231 144.5C231.167 144.333 231.5 143.9 231.5 143.5C231.5 143.1 231.5 143 231.5 143L233 142L232.5 141.5L231.5 140.5L231 139.5V138.5C231.167 138.333 231.6 137.9 232 137.5C232.4 137.1 232.5 137 232.5 137L233.5 137.5L234.5 136L235 136.5C235.333 136.5 236.2 136.7 237 137.5C237 138 237.5 138 238 138.5L238.5 138V137.5C238.833 137.333 239.6 137 240 137C240.4 137 240.5 137.333 240.5 137.5V138V138.5C240.333 138.667 239.9 139.1 239.5 139.5C239 140 239 140 239 140.5C239 140.9 239.333 141.333 239.5 141.5H240C240.167 141.333 240.7 140.8 241.5 140C242 139.5 242 139.5 242 139C242 138.6 242 138.5 242 138.5C242 138.333 242.2 137.8 243 137C243.5 136.5 244 137 245 137.5C245.8 137.9 245.667 137.667 245.5 137.5C246 137.333 247.1 137 247.5 137C247.9 137 247.667 137.333 247.5 137.5V138.5L246.5 140C246.167 140.333 245.2 141.3 244 142.5C243.6 142.9 243.5 143 243.5 143L242.5 143.5L241.5 144.5L240.5 145L240 145.5C239.833 145.667 239.4 146.1 239 146.5C238.5 147 238 146.5 238 146C238 145.6 237.333 145.5 237 145.5L236.5 146V146.5C236.5 146.833 236.3 147.6 235.5 148C235 148 234.5 148.5 234 149L234.5 150.5C234.5 151.167 234.5 152.6 234.5 153C234.5 153.4 233.833 153.5 233.5 153.5V153L232.5 151.5L232 152H231.5L231 153.5L229.5 155M229.5 157.5L229 156.5L229.5 155M229.5 157.5H230.5C230.667 157.333 231.1 156.8 231.5 156C231.5 155.6 231.167 155.167 231 155H229.5"
     stroke="black"
     id="path150" />
  <path
     d="M195.5 164L194.5 164.5H193L192.5 166.5L190.5 168L190 169.5L188.5 172L187.5 173C187.333 174.167 187 176.6 187 177V178C187 178.4 187.333 178.833 187.5 179L188 180.5H185.5L184 182.5L182 184.5L179.5 186.5L178.5 188L177.5 188.5L176.5 188L175.5 187L174.5 188.5L173.5 189.5C173.667 190.667 173.9 193.1 173.5 193.5C173.1 193.9 173 194.667 173 195L171 197L170.5 199.5H169.5L167.5 201H166L165.5 202.5L164 204V206.5V210V212L165.5 210.5C166.5 210.667 168.7 210.8 169.5 210C170 209.5 170 209.5 170.5 208.5C170.9 207.7 172 208.167 172.5 208.5L175 208L176 207L179 206.5C180.167 206 182.6 204.8 183 204C183.4 203.2 183.5 203.333 183.5 203.5H185.5C186 203.5 186.5 202 186.5 201.5C186.5 201.1 187.167 201 187.5 201H188.5C188.667 200.667 189.1 199.9 189.5 199.5C190 199 190 198.5 191 197.5C191.5 197 192 196.5 192 196V194.5V193L193.5 192C193.833 191.5 194.5 190.3 194.5 189.5V187.5V186L195.5 184L196 182L197.5 180C197.833 179.667 198.6 179 199 179C199.5 179 200.5 178.5 201 178C201.4 177.6 202.167 177.5 202.5 177.5L203.5 176L206 175V173.5V172L203.5 170L201.5 168H199.5L197.5 167L195.5 164Z"
     fill="#03A9F4"
     stroke="black"
     id="path152" />
  <path
     d="M150.5 199.5L152 197L153.5 198L155 202L156.5 203H158.5L156.5 196.5V190.5L159.5 187.5H161L162.5 186L163.5 184.5L167 184L169.5 186H173.5L175.5 186.5V187L175 187.5L174.5 188.5L173 189.5L173.5 190V191.5V193.5L172.5 195.5C172.333 196 171.9 197 171.5 197C171.1 197 170.667 198.667 170.5 199.5H169.5L168.5 200.5L166.5 201L166 201.5L165 202.5L164.5 203V204.5C164.333 205 164 206.1 164 206.5V208V210.5L163 213L160 215.5C159.5 215.667 158.3 216.2 157.5 217L156 218.5L155.5 219L154.5 217.5V220L155 222L154 224V226L153.5 225.5L152.5 224L151.5 223.5L150 222L147.5 221V219.5L146 217.5V216V214L145.5 211.5L145 210.5L143.5 210H142.5V208L143.5 205L145.5 203.5L147.5 203L149 202.5L150 201.5L150.5 199.5Z"
     fill="#03A9F4"
     stroke="black"
     id="path154" />
  <path
     d="M146 184.5V182.5H145L144.5 183.5L143 184L142.5 185L142 186L141 187L140.5 188L139.5 188.5L138 190V191.5L135.5 195L133 197L131.5 199L129 201L127 203L124 205.5L122 207L119 209L117 211.5V212V213L116.5 214L116 215L115.5 216L114 217.5L113 219V220.5L112.5 221L111.5 222V222.5L112 224L113 225V225.5L113.5 226V227V228L114.5 228.5L115 229H118H119.5L120.5 228.5L123 228L124 227L126 225.5L128 224.5H129.5L130.5 223.5H132.5L133.5 224.5L135 225.5L136 226H137H137.5L138.5 227L139.5 228L140.5 228.5L141 226L142.5 225.5L143.5 224.5L144.5 223.5L145 222.5V221.5L147 220V218.5L146 216.5V215V213.5V211.5L145 210L142.5 210.5V209L143.5 205.5L144.5 203.5L147 203L148.5 202V199.5V198L148 195.5V193V191V188.5L147 187.5V185.5L146 184.5Z"
     fill="#03A9F4"
     stroke="black"
     id="path156" />
  <path
     d="M145 175L144 173L146 171.5H147L148 172.5L148.5 172L149 171.5L149.5 170.5V170L150.5 169.5L151.5 170L152 170.5L153 170L154.5 169L155 167.5L156 166.5L157 165.5L158 166L159 166.5L160 168L161 169.5L162 171.5L163 173V174L162.5 174.5L161 175.5L159.5 177L158.5 177.5L158 179L157 181V182L156.5 184.5L155.5 185.5L154 186.5H152.5L151.5 186H149H147V185.5L146 184V182.5V181V179L145.5 176.5L145 175Z"
     fill="#03A9F4"
     stroke="black"
     id="path158" />
  <path
     d="M146 171.5L144 173L142.5 170.5L141.5 169L140 167L139 165L139.5 162.5L140.5 161.5L142 161H142.5L144 160.5L145 160L146 159L147.5 157.5L150.251 155.5L154 155V155.5L155.5 159L156.5 164.5L157 165.5L156 166.5L155 167.5L154.5 169L153 170L152 170.5L151.5 170L150.5 169.5L149.5 170C149.333 170.333 149 171.1 149 171.5C149 171.9 148.333 172.333 148 172.5L147 171.5H146Z"
     fill="#03A9F4"
     stroke="black"
     id="path160" />
  <path
     d="M128 160L125.5 161L123.5 165.5L119 171.5L114 173.5L111 181L115.5 186V189.5L118.5 194V196H120L123.5 194L126.5 191.5L129 190L132 189L135.5 188.5H137L138 190V190.5C138.333 190 139.2 188.9 140 188.5C140.8 188.1 141.333 187 141.5 186.5L143 184.5L144.5 183L146 182V180.5L145.5 176.5L144.5 174L143 171.5L141.5 169L140 167L139 165L140 162H136.5L135.5 161H133C132.333 160.667 130.9 160 130.5 160H128Z"
     fill="#52B156"
     stroke="black"
     id="path162" />
  <path
     d="M108.5 245L107 244L106 241L103.5 240L102.5 237.5H103H104L105.5 237H107L107.5 236.5L108 235.5L108.5 234.5L109.5 233L110 231.5V230H111L113 229.5H114.5C114.833 229.333 115.6 229 116 229H118H119.5C120 229 120.5 228.5 121 228.5C121.4 228.5 122.5 228.167 123 228L124 227.5L125.5 226.5L127 225L128 224.5C128.667 224.333 130.1 223.9 130.5 223.5C131 223 131.5 223.5 132 223.5C132.4 223.5 132.833 223.833 133 224C133.667 224.5 135.1 225.5 135.5 225.5C136 225.5 136.5 226 137 226C137.5 226 137.5 226.5 138 226.5C138.4 226.5 138.833 227.167 139 227.5L140 228.5L140.5 228L141 226.5L142.5 225.5L143.5 224.5C143.833 224 144.6 222.9 145 222.5C145.4 222.1 145.5 221.667 145.5 221.5C145.833 221.333 146.6 220.8 147 220C147.4 219.2 147.833 220.333 148 221C148.5 221.333 149.6 222 150 222C150.4 222 151.5 223.333 152 224L154 225.5V226L153.5 226.5L153 228.5V230L151.5 231L150.5 232L147.5 235C147.167 235.333 146.5 236.1 146.5 236.5C146.5 237 145.5 238 145 238C144.6 238 144.167 238.667 144 239L143 240.5H140.5L139 241L137.5 241.5H136V240.5C136 240.1 136.667 239.333 137 239L136.5 238L136 237.5L134.5 238L133.5 239L132 240.5C131.5 241 129.5 241 129 241.5C128.5 242 127.5 242 127 242.5C126.5 243 126 243.5 126 244C126 244.4 125 245.5 124.5 246L122.5 247L120 248L119.5 249L119 250.5V251.5C119 251.9 119.333 252 119.5 252L120.5 253L122 253.5L120.5 254C119.833 253.833 118.4 253.4 118 253L117 252L115.5 251.5C115.167 251.5 114.4 251.4 114 251L113 250L111 247.5L108.5 245Z"
     fill="#FF0000"
     stroke="black"
     id="path164" />
  <path
     d="M118.5 194L115.5 189.5L113.5 190H111L112 193.5V194.5V197L111.5 198L110.5 199L110 200L108 202C107.833 202.167 107.4 202.5 107 202.5C106.6 202.5 106.5 203.167 106.5 203.5L107.5 204.5L108 206.5V210L108.5 211.5L107 214V215L107.5 216.5L107 217.5L107.5 218L110 217.5L111 217L112.5 215.5L116 211.5H117L118.5 209.5L121 207.5L123.5 206L126 204L129 201L131.5 199L133 197L135.5 195L136.5 193.5L138 191.5V190L137 188.5H135.5L132 189L129 190L126.5 191.5L123.5 194L120 196H118.5V194Z"
     fill="#52B156"
     stroke="black"
     id="path166" />
  <path
     d="M115.5 186L111 181L109.5 183L104 189.5L102.5 193V195L103.5 196L104.5 196.5L104 198L101.5 199L100.5 200L100 202V204L99.5 205.5L100.5 207.5V209L101 209.5H102.5L104.5 210.5L105 212.5L107 214.5L108.5 211.5L108 210V207C108 206.333 107.8 204.8 107 204C106.2 203.2 107.333 202.333 108 202L110 200L112 197V193.5L111 190H113.5L115.5 189.5V186Z"
     fill="#52B156"
     stroke="black"
     id="path168" />
  <path
     d="M103 210L100.5 209L101 213L100 215.5V218V220.5L100.5 221.5L101 222.5L102 222C102.5 222 103.6 221.9 104 221.5C104.4 221.1 105.167 220.667 105.5 220.5L107 218L107.5 216.5L107 215C106.667 214.5 105.9 213.4 105.5 213C105 212.5 105 211.5 104.5 211C104.1 210.6 103.333 210.167 103 210Z"
     fill="#FF0000"
     stroke="black"
     id="path170" />
  <path
     d="M107 218C106.6 218 106.167 219.667 106 220.5L108 222V223.5L107.5 226H108L109 227L109.5 228.5L110.5 230L113 229.5H114L114.5 228.5L113.5 228V226.5C113.5 226.1 113.167 225.333 113 225L112.5 224.5C112 223.833 111.1 222.4 111.5 222L113 220.5V219.5L114.5 217L116.5 214.5L117 213V211.5H116L113.5 214.5L111 217C110.5 217.5 107.5 218 107 218Z"
     fill="#FF0000"
     stroke="black"
     id="path172" />
  <path
     d="M94.5 204.5H91.5V206.5L92.5 207L92 210L91.5 211.5L92.5 213.5V217V220.732L92 223.5V226L93 226.5L94.5 227H95.5L97 226L98 224.5L100.5 223V222L100 220.732V218.759V215.5L101 213V211.5L100.5 209H98.5L97 209.5C96.8333 209.167 96.4 208.4 96 208C95.6 207.6 95.5 206.833 95.5 206.5L94.5 204.5Z"
     fill="#FF0000"
     stroke="black"
     id="path174" />
  <path
     d="M94 241L92.5 237.5L95.5 235.5L97 233.5H97.5C98.1667 234.333 99.7 236 100.5 236C101.3 236 101.833 236.667 102 237L103.5 240L106 241L107 244L108.5 245L111 247.5L113.5 250.5L110.5 249.5C109.167 248.667 106.4 247 106 247C105.6 247 102.833 245.667 101.5 245C100.833 244.667 99.4 244 99 244C98.5 244 98 243 97 242.5C96 242 96 242.5 95.5 242C95.1 241.6 94.3333 241.167 94 241Z"
     fill="#FF0000"
     stroke="black"
     id="path176" />
  <path
     d="M72 209L71.5 205.5L69.5 207L68.5 210.5V215.5L70.5 216L71.5 217.5L72 216.5L73 215L74.5 214V213L73 211L72 209Z"
     fill="#52B156"
     stroke="black"
     id="path178" />
  <path
     d="M77 211.5L74.5 213V214L73 215L71.5 217L71 219.5L70.5 220L72 221.5L73.5 222.5H76L76.5 221.5L77 220V214.5V211.5Z"
     fill="#52B156"
     stroke="black"
     id="path180" />
  <path
     d="M77.5 204.5H73L71.5 206L72 209L73 211L74.5 213L77 211.5L77.5 209V206.5V204.5Z"
     fill="#52B156"
     stroke="black"
     id="path182" />
  <path
     d="M96 227.5L94.5 227L94 229V230V231L94.5 231.5L95.5 232L96.5 232.5L97 233V233.5L97.5 234L98.5 233.5L99 232.5L99.5 231.5L99 230.5L98.5 230H97.5L96.5 228.5L96 227.5Z"
     fill="#FF0000"
     stroke="black"
     id="path184" />
  <path
     d="M91 204.5H87V218L92.5 217.5V217V215.5V213.5L91.5 211.5L92 210.5L92.5 208V207L91.5 206.5L91 204.5Z"
     fill="#52B156"
     stroke="black"
     id="path186" />
  <path
     d="M103 233.5L101.5 236.5L99.5 235.5L98.5 234.5L98 233.5L99 233L99.5 231.5V231L98.5 230H97.5L96.5 228.5L95.5 227L96 226.5L97 226L98 224.5L99.5 223.5L100.5 223L101.5 224.5L102.5 226.5L102 229V230.5L103 232V233.5Z"
     fill="#FF0000"
     stroke="black"
     id="path188" />
  <path
     d="M102 222L100.5 223L102.5 226.5L102 229L103 229.5H104L105 228L105.5 227L107 226.5L107.5 225.5L108 223C108 222.833 107.9 222.4 107.5 222C107 221.5 106.5 221.5 106 220.5C105.6 219.7 105.5 220.167 105.5 220.5L104 221.5L102 222Z"
     fill="#FF0000"
     stroke="black"
     id="path190" />
  <path
     d="M103.5 229.5H102.238V230.5L103 232V233L102.5 234.5L101.5 236L102.238 237.5H103H104C104.5 237.5 105 237 105.5 237H107C107.4 237 107.5 236.333 107.5 236L108.5 234.5L109.5 232.5L110 231V229.5L109.5 228.5C109.333 228.167 109 227.4 109 227C109 226.6 108.333 226.167 108 226L106.5 226.5L105.5 227C105.167 227.5 104.5 228.6 104.5 229C104.5 229.4 103.833 229.5 103.5 229.5Z"
     fill="#FF0000"
     stroke="black"
     id="path192" />
  <path
     d="M89.5 235.5L87.5 235L86 233.875V232.5V231.5L87 230H88L90 231.5H91H92V231L91.5 230.5V229L92 227.5L92.5 226.5H93H93.5L94.5 227L94 229V231C94 231.4 94.3333 231.5 94.5 231.5C95.1667 231.833 96.6 232.5 97 232.5C97.4 232.5 97.1667 233.167 97 233.5L95.5 235.5L92.5 237.5C92 237.167 91 236.4 91 236C91 235.6 90 235.5 89.5 235.5Z"
     fill="#FF0000"
     stroke="black"
     id="path194" />
  <path
     d="M87 204.5H77.5V209L77 211.5V220L76 222.5H73.5V223L74 225.5L75 226.5L77 228L79 229.5L79.5 231L81.5 232.5L83 233.5H84.5H86V231.5C86 231.1 86.6667 230.333 87 230H88L90 231.5H92C92.4 231.5 91.8333 230.833 91.5 230.5V228.5L92.5 227L92 226V224L92.5 220.5V217.5L87 218V204.5Z"
     fill="#FF0000"
     stroke="black"
     id="path196" />
  <path
     d="M60.5 211L58 209L59 208H62H64L67 207.5L69 207L69.5 207.5L68.5 210.5V213V215.5L70.5 216L71.5 217.5L71 219.5L69 220H67L64.5 218.5C64.1667 217.833 63.5 216.4 63.5 216C63.5 215.6 62.8333 213.833 62.5 213L60.5 211Z"
     fill="#FF0000"
     stroke="black"
     id="path198" />
  <path
     d="M76 192L75.5 190.5L80 189V198.5L80.5 203V204.5H78.5H76H73L72 203.5L72.5 202.5L74 201.5V200.5L76 197L75.5 196L76 194V192Z"
     fill="#52B156"
     stroke="black"
     id="path200" />
  <path
     d="M80 193.5V189L81 187.5L81.5 186L82.5 184.5V183L85 181.5L86.5 181H88L89 182L88.5 189.5L86.5 190V197V200L86 204.5H80.5V203L80 198.5V193.5Z"
     fill="#FF0000"
     stroke="black"
     id="path202" />
  <path
     d="M88.5 189.5L89 182L91 181.5L92.5 180.5L93 179.5L92.5 177.5V176.5L95.5 176L98 174V173L99.5 174L101.5 176L101 177L99.5 178.5H98V180.5L99.5 181.5L98 182.5L97 182L95.5 185V186.5L94.5 189.5V192L93.5 193L95.5 194.5L92.5 197V200L92 203L91 204.5H88.5H86L86.5 200V190L88.5 189.5Z"
     fill="#FF0000"
     stroke="black"
     id="path204" />
  <path
     d="M95.5 176L93 176.5L93.5 173L95 172.5L96.5 171.5L97 170L98 168L100 169L102.5 167.5L103.5 166L104.5 165.5H106.5L107.5 164.5L114 161V160.5H116L121.5 157L124.5 156.5L125.5 161L123.5 165.5L121.5 168L119 171.5L114 173.5L113.5 175L111 180.5L109.5 183L106.5 186.5L104 189.5L102.5 193H101H97L95.5 194.5L93.5 193L94.5 192V189.5L95.5 186.5V185C95.8333 184.5 96.6 183.3 97 182.5C97.4 181.7 97.8333 182.167 98 182.5L99.5 181.5L98 180.5V178.5H99.5L101 177L101.5 176L99.5 174L98 173V174L95.5 176Z"
     fill="#FF0000"
     stroke="black"
     id="path206" />
  <path
     d="M125.5 161L124.5 156.5L126 155L127.5 153.5L129 153L131 150.5L135 147.5L137 145L137.5 143.5L140.5 140.5L141.5 139L144 141L149 143.5L151 145.5L153 147L155.5 149.5L154 151.5V155L150.5 155.5L147.5 157.5L145 160L143 161H142C141.333 161.333 139.9 162 139.5 162H136.5L134 161L131 160.5L127.5 160L125.5 161Z"
     fill="#52B156"
     stroke="black"
     id="path208" />
  <path
     d="M116 160.5H114L113 158V156.5L112 155V150.5L110.5 148L111.5 145.5V144.5L113.5 138.5V136L114.5 134H119.5L118.5 132L120.5 129.5L123 128.5H125L129.5 125L132 124.5L135.5 120.5V119L134 118L132 115L134 111.5L135.5 110V109.5H136.5L144 115L147 116.5L150.5 118L153 119L152.5 122L152 124.5L151 128.5L149.5 131L147.5 133L143 137L141.5 139L140.5 140.5L139.5 141.5L137.5 143.5L137 145L135 147.5L133 149L131 150.5L129 153L127.5 153.5L126 155L125 156.5L121.5 157L120 158L117.5 159.5L116 160.5Z"
     fill="#FF0000"
     stroke="black"
     id="path210" />
  <path
     d="M112 150.5L110.5 148H97.5L96.5 152.5V154L95.5 155.5L92.5 156L91.5 160.5H87.5V164L81.5 165L80 166.5V189L80.5 188.5L81 187.5L81.5 186L82.5 184.5V183L83.5 182.5L85 181.5L86.5 181H88L89 182H90L91.5 181.5L92.5 180.5L93 179.5L92.5 177.5L93 175.5L93.5 173L95 172.5L96.5 171.5L97 170L98 168L99.5 169L101 168.5L102.5 167.5L103.5 166L104.5 165.5H106.5L107.5 164.5L110.5 163L112 162L114 161V160L113 157.5V156.5L112 155V152.5V150.5Z"
     fill="#AB47BC"
     stroke="black"
     id="path212" />
  <path
     d="M80 166.5V172.5H74.5L73.5 170.5L74.5 168V166.5L73.5 165V163.5L75 161.5L75.5 159.5L78 154.5V154L79 153V129L80.5 130H82.5L90 127.5L93 125.5L95 126H101L101.5 125.5H104L110 126V128H113L114.5 128.5V134L113.5 136V138.5L112 143L111.5 145L110.5 148H106H101.5H97.5L96.5 152.5V154L95.5 155.5L92.5 156L92 158L91.5 160.5H89.5H87.5V164L81.5 165L80 166.5Z"
     fill="#FF0000"
     stroke="black"
     id="path214" />
  <path
     d="M80 172.5H74.5V178H73L71.5 177.5L70 176H68.5L67.5 177L69 179L65 181.5L63.5 183.5L65.5 184.5L67.5 185L71 188.5H72.5L74.5 189.5L75.5 190.5L80 189V179.5V172.5Z"
     fill="#FF0000"
     stroke="black"
     id="path216" />
  <path
     d="M65 181.5L63.5 183.5L61.5 182.5H60L59 180L59.5 179.5L58.5 178.5L57 177.5L55.5 176L55 175.5L56 174.5L56.5 172.5V170.5L58 169.5V165.5H60L61.5 167L68 169.5H70.5L73 170.5L73.5 171C73.8333 171.5 74.5 172.6 74.5 173V173.5V175V177V178H74H73L71.5 177.5L70 176H68.5L67.5 177L69 179L66.5 180.5L65 181.5Z"
     fill="#52B156"
     stroke="black"
     id="path218" />
  <path
     d="M60 182.5L59 180L57 180.5H56V182.5L58 184L59 186L60 189.5L59.5 190L63 192.5L62.5 197.5H64V202L65.5 203H70L72 203.5L72.5 202.5L74 201.5V200.5L75 198.5L76 197L75.5 196L76 193.5V192C75.8333 191.5 75.4 190.4 75 190C74.6 189.6 73.8333 189.167 73.5 189L72.5 188.5H71L70.5 188L69 186.5L67.5 185L65.5 184.5L63.5 183.5L61.5 182.5H60Z"
     fill="#52B156"
     stroke="black"
     id="path220" />
  <path
     d="M63 192.5L59.5 190L57 191L58 193.5V195L57 199L61.5 201L64 202V197.5H62.5L63 192.5Z"
     fill="#52B156"
     stroke="black"
     id="path222" />
  <path
     d="M60.5 200.5L57.5 199L57 199.5L55.5 201V203.5L58 204V206L59.5 208H62.5L67.5 207.5L69 207L71 206L72.5 205L72 203.5L70 203H65.5L64 202L62.5 201.5L60.5 200.5Z"
     fill="#52B156"
     stroke="black"
     id="path224" />
  <path
     d="M38.4999 191L36.9999 189L36.5833 186.5L38.4999 185.5H39.9999L41.9999 184.5L43.9999 188L48.4999 180.5L46.9999 175.5L49.9999 176L52.4999 177.5L53.9999 179L55.9999 180.5V182.5L57.9999 184L58.9999 186L59.9999 190L58.4999 190.5L56.9999 191C57.3333 191.667 57.9999 193.1 57.9999 193.5V195.5L56.9999 199.5L55.4999 201V203.5L57.9999 204V206C58.3333 206.667 58.9999 208.1 58.9999 208.5C58.9999 208.9 57.6666 208.667 56.9999 208.5C55.8333 208 53.3999 206.9 52.9999 206.5C52.5999 206.1 51.4999 205.333 50.9999 205H49.4999L48.4999 202.5C48.1666 202 47.3999 201 46.9999 201C46.5999 201 45.8333 200.333 45.4999 200C44.6666 199.833 42.8999 199.5 42.4999 199.5C42.0999 199.5 41.3333 198.5 40.9999 198L39.9999 196L38.4999 193V191Z"
     fill="#AB47BC"
     stroke="black"
     id="path226" />
  <path
     d="M56 174.5L55 175.5L54.5 175L54 174V173L53.5 172L53 171L52.5 170L52 169L51 167L50.5 166L49.5 162L49 160.5V160H51.5L53 157H58L59.5 156V152L60 148.5V145.5L62.5 144.5V144L63.5 143.5H68L68.5 144.5V147L69.5 147.5L70.5 147L71 148L72.5 150L73 151L74.5 154H78V154.5L75.5 159.5L75 161.5L73.5 163.5V165L74.5 166.5V168L73.5 170.5H73L70.5 169.5H68L65.5 168.5L63 167.5L61.5 167L60 165.5H58V167.5V169.5L56.5 170.5V172.5L56 174.5Z"
     fill="#FF0000"
     stroke="black"
     id="path228" />
  <path
     d="M50 164.5L49 160L47.5 161L45.5 163.5L44.5 165.5L46 167L46.5 169.5V171L45.5 172L46.5 174L47.5 175.5L50 176L53 178L55.5 180.5H57L58.5 180L59.5 179.5L58.5 178.5L57 177.5L55.5 176L54.5 175.5L54 173L53 170.5L51.5 168.5L51 167L50 164.5Z"
     fill="#FF0000"
     stroke="black"
     id="path230" />
  <path
     d="M36.5 186.5L36 185.5L38.5 184L39.5 182.5L40 181V177L39.5 175.5V172.5H41L42 172H43H45.5L47 175.5L48.5 180.5L46 184.5L44 188L42 184.5L40 185.5H38.5L36.5 186.5Z"
     fill="#FF0000"
     stroke="black"
     id="path232" />
  <path
     d="M53.5 138.5L58 132H63L68 130.5H70L71 133V134.5L72.5 136V139L71 140.5L70 142.5L69.5 144L70 146L70.5 147L69.5 147.5L68.5 147V146.5V144.5L68 143.5H66H64.5H63.5L62.5 144V144.5L61.5 145L60 145.5L59 144.5L57 144H56L54.5 142L54 140L53 139L53.5 138.5Z"
     fill="#FF0000"
     stroke="black"
     id="path234" />
  <path
     d="M44 140L44.5 137L48 138.5H52L53 139L54 140L54.5 142L56 144H57L59 144.5L60 145.5V146.5V148.5L59.5 152V155V156L58 157H57H54H53L52 159L51.5 160H50H48.5L47.5 161L46 163L44.5 165.5L45 162.5L45.5 161L46.5 157.5L43 157L42 155L41.5 151.5L42 149.5V145.5L44 143.5V140Z"
     fill="#FF0000"
     stroke="black"
     id="path236" />
  <path
     d="M42 149.5V148H41L33 145.5L32.5 146L35 155.5L35.5 158L36 159.5V160.5L36.5 161L38 160.5H39L40 162.5V163.5L39.5 164L39 165L39.5 166L41.5 166.5V168L42 169V170V172H44.5L46 171.5L46.5 171V170L46 167L44.5 165.5L45 162.5L46.5 157.5L43 157L42 155L41.5 151.5L42 149.5Z"
     fill="#FF0000"
     stroke="black"
     id="path238" />
  <path
     d="M16.5 86.5V84.5L21 83.5L23.5 85H26.5L28 87L28.5 88.5L29.5 91.5L30.5 95V98.5L31 103L32.5 107V109L33 112.5L35 114.5L37 116H40L41 117.5V120.5L36 129L35.5 130L33 135L30.5 138.5L28 141V144L32.5 145.5V146L33 147.5L33.5 149.5L34 151.5L34.5 153.5L35 155.5L35.5 158L36 159.5V160.5L36.5 161L38 160.5H39L39.5 161.5L40 162.5V163.5L39.5 164L39 165L39.5 166L41.5 166.5V167V168L42 169V170L42.5 171.5L41.5 172L41 172.5H39.5V173.5V174.5V175.5L40 177V178V179.5V181L39.5 182.5L38.5 184L38 184.5L36 185.5L35.5 185V184L35 182.5L34 182L33.5 181.5L32.5 181L33 180L32.5 179.5V177L32 175.5L31.5 174L31 172.5L30 171.5L28.5 170L26.5 169L25.5 168.5L23.5 168L23 167V165.5L24 163.5L23.5 162L23 161.5L22.5 159.5L21.5 158.5L20.5 157.5L19.5 156.5L19 155L17.5 154L16.5 153L15 152L13.5 150.5L12.5 149.5L10.5 148.5H8.5L7 149.5L6.5 149L5.5 147.5L4.5 146.5V145V144L3.5 143L2 142L2.5 141L2 140V139L1.5 137.5H0.5V136V134.5L1.5 133.5L2.5 132.5L4 134L4.5 135.5L5.5 137L6.5 137.5L7 137H8.5L9 136.5L8.5 135.5L7.5 135L6.5 134L7 132.5V131L6 131.5L5.5 130L4 129.5L4.5 128C5 128.167 6.1 128.5 6.5 128.5H8L9 127.5L8.5 126.5V125L9 124.5L10.5 123.5L10 123L10.5 121.5L11.5 121V120.5L12 119.5L13 120.5L13.5 121.5L15.5 122L16.5 121.5L16 120.5H15L14.5 119.5L13.5 118L12.5 117L13.5 115.5L14 114L14.5 114.5L15.5 115H16.5V114.5V113.5L15.5 113L14.5 112.5L13.5 111.5L13 110.5L13.5 109.5L14 108.5V107.5L13.5 105L14.5 105.5H16V104.5V103L16.5 102L18 103L19 104L20 105L20.5 106L21.5 105.5L21 104.5V103.5H22.5L24 104.5H26.5L25.5 103L24 102H22.5L24 101V98.5L22.5 100L20.5 101V100L21 98.5V97.5L19.5 98.5V97L20.5 95.5H22.5V94H21.5L18 95L16.5 92.5L18 90.5V88.5L16.5 86.5Z"
     fill="#FF0000"
     stroke="black"
     id="PontaNegra" />
  <path
     d="M71 133L70 130.5L79 129.5V153L78 154H77H74.5L73.5 152L72.5 150L71 148L70 146L69.5 144L70 142.5L71 140.5L72.5 139V136L71 134.5V133Z"
     fill="#52B156"
     stroke="black"
     id="path242" />
  <path
     d="M26.5 85H23.5L26 80.5L30.5 79L34 80L35.5 77L40.5 79L45 77L46 74.5L47 73.5L46 71.5L48 69L48.5 67.5L50.5 68.5L51.5 65.5L55 64.5L56.5 62L63.5 63L67 68L70.5 69.5L72.5 71L74.5 73L73.5 76V81L72 88.5L72.5 90.5L76.5 99.5L80 104L82.5 108.5L84 109.5L85 111L85.5 113.5L82 117.5L79 122V129L77.5 130L71.5 130.5H68L63 132H58L56 135L53.5 138.5H51H48L44.5 137L44 140V143.5L42 145.5V148H41L36 146.5L32.5 145.5L28 144V141L30.5 138.5L33 135L36 129L38.5 125L41 120.5V117.5L40 116H37L35 114.5L33 112.5L32.5 108.5V107L31 103L30.5 98V95L29 90L28 87L26.5 85Z"
     fill="#FF0000"
     stroke="black"
     id="Taruma" />
  <path
     d="M100.5 115V104.5L101 104H102.5L104.5 103.5L105.5 102.5L108.5 103V100.5H111L112.5 102.5L114 104L115.5 104.5H117.5L118 103V101L119 100L119.5 98.5V94.5L123.5 93.5L124.5 91L128.5 92.5L129.5 93.5L131.5 94H133V92.5L134.5 94.5L135.5 96.5L137.5 98.5L138.5 101V104L138 106L138.5 109L135.5 109.5V110L134 111.5L133 113L132 115L132.5 116L134 118L135.5 119V120.5L134 122.5L132 124.5L129.5 125L127.5 126.5L125 128.5H123L120.5 129.5L118.5 132L119.5 134H114.5V128.5L113.5 128H110V126H109L104.5 125.5H101.5L101 126H99.5H95L92.5 125.5L97.5 121.5L100 118.5L100.5 115Z"
     fill="#AB47BC"
     stroke="black"
     id="path246" />
  <path
     d="M100.5 115V104L99 105L98 106.5V110L96.5 111.5L95.5 113.5L95 117L93.5 115.5H89V113.5L87.5 112.5L86.5 113H85.5L85 114C84.3333 115 82.9 117 82.5 117C82.1 117 81 118.667 80.5 119.5L79 122V125.5V129L80.5 130H82.5L86 129L90 127.5L93.5 125L98 121L100 118.5C100.167 117.5 100.5 115.4 100.5 115Z"
     fill="#52B156"
     stroke="black"
     id="path248" />
  <path
     d="m 85.5,113.5 -0.5,-2 2,-3.5 -1,-1 -1,-3 3,-3 v 0 l 2.5,-0.5 v 2.5 l 3,1 v 1 l -1.5,1.5 2,1 0.5,1 2,-0.5 1.5,-1.5 v 2 2 l -1.5,1.5 -0.5,1 -0.5,1 -0.5,3.5 -2,-1.5 H 91.5 89 v -2 l -1.5,-1 -1,0.5 z"
     fill="#52b156"
     stroke="#000000"
     id="path250"
     sodipodi:nodetypes="ccccccccccccccccccccccccccccc" />
  <path
     d="M73.5 76L74.5 73H82L84.5 76L87.5 78.5L91 80.5L95 82H96V84.5L98.5 85L99.5 86L100.5 89.5V98L101.5 102V103.5L99 105L98 106.5L96.5 108L94.5 108.5L93.5 107L91.5 106.5L93.5 105V104L90.5 103V100.5L88.5 101.5L88 100.5L85 104L86 106.5L87 108L85 111.5L84 109.5L82.5 108.5L80 104L76.5 99.5L74.5 95L72.5 90.5L72 88.5L73 83.5L73.5 80.5V76Z"
     fill="#FF0000"
     stroke="black"
     id="path252" />
  <path
     d="M96 84.5V82L99.5 81.5L102.5 80L102 76V71.5H105.5V69.5H106.5L106 65.5H110.5V70V73.5V78L110 79.5L109 80L108.5 82L109 84.5V91L108.5 93.5L109 95.5V98L108.5 99V100.5V103H107.5L105.5 102.5L104.5 103.5L103 104H101.5V102.5L100.5 98V96V93V89.5L99.5 86L98.5 85L96 84.5Z"
     fill="#AB47BC"
     stroke="black"
     id="path254" />
  <path
     d="M210.5 76.5L186 82V91L185 93.5L182.5 95L182 96.5L176.5 98.5L175.5 100.5L175 102.5L173 104.5V111.5L178.5 117L177 119.5L176.5 121.5L175 123.5L174.5 125L172.5 127L173 128L174.5 130V131L174 132.5L175 135.5L174 139L173 141L171.5 143.5H172L175 144V147L174 150L175.5 155.5L176 159V163L174.5 164.5V166.5V168.5L171.5 171L167.5 173L165.5 173.5H163.5L160 176.5L158.5 177.5L157 181L156.5 184.5L155 186L153.5 186.5L151.5 186H148.5H147L148 188.5V191.5L148.5 196.5L149 199L148.5 202L150 201L151.5 196.5L153.5 198L155 202L156.5 203H158.5L157.5 200L156.5 196.5V194V190.5L159.5 187.5H161L162.5 186L163.5 184.5L167 184L169.5 186H171H173.5L175.5 186.5L177 188.5H178L179.5 186.5L182 184.5L183.5 183L185.5 180.5H187H188.5L187.5 179.5L187 178.5V176L187.5 173.5L189 171L190.5 168.5L192.5 166.5L193 164.5H194.5L195.5 163.5L198 162L199.5 160.5L200.5 159V157L201.5 155.5L202.5 154L201.5 152V149.5V147.5L203 144.5H201.5L199.5 143.5L196.5 142.5L194.5 141.5L192.5 140L189.5 136.5L191.5 135L193 133.5V132H195.5L196.5 131L199.5 130.5L201.5 128.5L202 126.5V124.5L203 122.5L204.5 121V118.5L203 117L202 115.5L204 114L203 110L204 106L205.5 105.5L207.5 104H210.5L212 101L214 97L218 95.5L222.5 97H224L226.5 95.5L228 94.5L229.5 95.5L234.5 94.5L238 97L241.5 94.5L243 95.5L247.5 97H249.5L252.5 99V97V95.5L251.5 94.5L250 95.5V94L248.5 93.5L247.5 94.5L246 94L245 92L246.5 89.5L247 91.5H249.5V88.5L250 86L249.5 84.5L248.5 85.5H248V83L246.5 84.5L244.5 86L245 83.5H244.5V82L246.5 82.5L248.5 81L250 78.5L252.5 80V78.5L251.5 75V72.5L249.5 71.5H248.5V73H247V71.5L243 69.5H234.5L226.5 72.5L221 68.5H214L212.5 72.5L210.5 73V76.5Z"
     fill="#03A9F4"
     stroke="black"
     id="path256" />
  <path
     d="M149 131.5L151 128.5L154 131.5L159.5 134.5L161 134L161.5 134.5L162 136L161 137.5V139.5L160.5 140L159.5 144L160.5 147.5L159 150L157.5 149L156 149.5L154.5 148.5L153 147L151 145.5L149 143.5L146 142L144 141L141.5 139L143 137L146 134.5L149 131.5Z"
     fill="#03A9F4"
     stroke="black"
     id="path258" />
  <path
     d="M186 82L153 89L154 94.5L154.5 98.5L155.5 101.5L156.5 103.5L158.5 107L158 109.5L157 111.5L155.5 114.5L153 119L152.5 122.5L151 128L151.5 129L154 131.5L156 132.5L159.5 134.5L161 134L162 134.5V136L161 138V140H169.5L170 142.5L171.5 143.5L172.5 142L173.5 140L175 135.5L174.5 134.5L174 132.5L174.5 131.5V130L174 129.5L172.5 127L174.5 125L175 123.5L176.5 121.5L177 119.5L178.5 117L177 115.5L175 113.5L173 111.5V109V104.5L175 102.5L175.5 100.5L176.5 98.5L179 97.5L182 96.5L182.5 95L185 93.5L186 91V87.5V85V82Z"
     fill="#03A9F4"
     stroke="black"
     id="path260" />
  <path
     d="M175 144L171.5 143.5L170 142.5L169.5 140H168H165H162.5H160.5L160 141.5L159.5 144L160 145.5L160.5 147.5L159 150L157.5 149L155.5 149.5L154 151.5V155L154.5 157L155.5 159L156.5 165L159 166.5L160.5 168.5L162 171.5L163.5 174L165 173.5H167L170 172L172.5 170L174.5 168.5L175 167L174.5 165.5L175.5 163L176 159.5L175.5 156.5V155L174.5 152L174 150L175 147V144Z"
     fill="#03A9F4"
     stroke="black"
     id="path262" />
  <path
     d="M137 87L130.5 88L131 89L132.5 91.5L134 93.5L135 96L137.5 98.5L138.5 101V104L138 106L138.5 109L136.5 109.5L139.5 111.5L141.5 113L144 115L147 116.5L150.5 118L153 119L154 117.5L155 115.5L156.5 112.5L158 110.5L158.5 107.5L158 106.5L157 104L156 103L155.5 101L154.5 98.5L154 95L153.5 91.5L153 89H150L146.5 90L142.5 91H138.5L137 87Z"
     fill="#52B156"
     stroke="black"
     id="path264" />
  <path
     d="M109.5 63L108.5 62.5V61L109 59L109.5 56L110.5 53.5L112.5 53L114 54.5L115.5 56L116.5 57L119 55.5L120.5 54.5L122 54L125 53L125.5 56.5L126 60L126.5 65L127 69L127.5 74.5L128 79.5L128.5 83.5L129 85V87.5H130.5L131 88.5L131.5 90L132.5 91.5L133 93V94H132H131L129.5 93.5L128.5 92.5L127 92L124.5 91L124 92L123.5 93.5L122.5 94L119.5 94.5V96V98.5L119 100L118 101V103L117.5 104.5H115.5L114 104L113 103L111.5 101L111 100.5H108.5V99L109 98.5V96.5L108.5 93.5L109 91V88.5V86.5V84L108.5 81.5L109 80H109.5L110.5 78.5V77V69.5V68V66L109.5 63Z"
     fill="#52B156"
     stroke="black"
     id="path266" />
  <path
     d="M87.5 54.5V52L88 53L89 54.5L89.5 55L91 56.5L94 58L98 59L101 60L103.5 61L106.5 62.5H108.5L109.5 63L110 65.5H106L106.5 69.5H105.5V71.5H102V76L102.5 80L99.5 81.5L95 82L91 80.5L87.5 78.5L84.5 76L82 73H78H74L78.5 68.5L86 59L87.5 54.5Z"
     fill="#AB47BC"
     stroke="black"
     id="SantaEtelvina" />
  <path
     d="M71.5 14.5L72 23V34.5L73.5 37.5L77.5 40.5L82 43L87.5 49.5V51.5V54.5L86 59L83 63L81 65.5L78.5 68.5L76.5 70.5L74 73L73 71.5L71 69.5L67 68L65.5 66L63.5 63L56.5 62L55 64.5L51.5 65.5L50.5 68.5L48.5 67.5L48 69L46 71.5L47 73.5L46 74.5L45 77L40.5 79L35.5 77L34 80L30.5 79L26 80.5L23.5 85L21 83.5L16.5 84.5V82L14.5 81.5L14 80.5L13 78.5L12.5 75.5L11.5 77L11 75.5L10 72.5L11 71.5L14.5 72V71L14 69.5L13.5 68.5L15 66V64L13 66.5L12 70L11 69V67L9.5 68.5L8 65L10 63.5L9.5 61.5L11 60L10 59L11 56.5L12.5 55L12 53.5L13 51.5L12 49.5L11 46.5L9.5 45V42.5H12H13.5H14.5L17.5 44L17 42.5L15.5 40.5L13.5 41L11 39.5L11.5 39L11 38L11.5 36.5L13 33.5L17 34.5L20.5 33.5L25.5 33L30 30.5L33 31L35 29L38.5 27L39 26L41.5 24.5H44.5L45.5 22.5L47.5 21L51 19.5L53 16L54.5 15L58.5 10L63.5 7L66 4.5L70 2.5L70.5 6L71.5 14.5Z"
     fill="#AB47BC"
     stroke="black"
     id="TarumaAcu" />
  <path
     d="M92.5017 9.00001C92.5017 9.00001 99.5033 1.00001 101.002 1.00001C102.5 1.00001 118.502 0.499967 118.502 1.00001V3.50001L119.502 10L120.502 19.5L122.002 29.5L123.502 39.5L124.502 49.5C124.502 49.5 125 52 125.002 52.5C125.003 53 124.002 53.5 124.002 53.5L120.502 54.5L117.502 56.5H116.002L114.002 54.5C114.002 54.5 113.308 52.4021 111.002 53C108.695 53.5979 109.502 62 108.002 62.5C106.502 63 103.502 61 103.502 61L101.002 60L98.0017 59L94.0017 58L91.0017 56.5L89.0017 54.5L88.0017 52.5L87.0017 49L85.0017 46.5L82.0017 43L77.5017 40.5L73.5017 37.5L72.0017 34.5V31V24.5C72.0017 24.5 71.8002 22.8952 72.5017 22.5C75.0546 21.0616 81.8032 21.8455 82.5017 20.5C83.2001 19.1546 81.9162 22.4852 82.5017 23.5C83.0706 24.4862 84.0593 24.361 85.0017 25C85.8097 25.548 86.3874 27.2589 87.0017 26.5C89.7475 23.1079 90.9621 17.9622 91.0925 17.4553L92.5017 9.00001Z"
     fill="#AB47BC"
     stroke="black"
     id="LagoAzul" />
</svg>
